<svg xmlns="http://www.w3.org/2000/svg" fill="none" viewBox="-0.5 -0.5 220 220" id="Modular-Coding-Application--Streamline-Bangalore.svg" height="220" width="220"><desc>Modular Coding Application Streamline Illustration: https://streamlinehq.com</desc><g id="Development-Modular-coding-of-application-01"><g id="color 2"><path id="Vector" fill="#d6f2ff00" d="m78.7086 174.69192000000004 -17.309760000000004 7.968315000000001c0.45771000000000006 -0.22885500000000003 19.015770000000003 -11.92017 19.015770000000003 -11.92017 0 -4.308825000000001 -2.938980000000001 -10.496670000000002 -7.7810700000000015 -11.338725000000002l2.4341850000000003 -3.3288000000000006c-2.6325990000000004 -3.7240950000000006 -6.529375500000001 -6.364140000000002 -10.964235000000002 -7.428480000000001l-10.360890000000001 13.108245000000002c-1.3433460000000002 -4.582575 -4.050076500000001 -8.646120000000002 -7.760265000000001 -11.651895000000001 -2.5100685000000005 -0.6548100000000001 -4.938669000000001 -1.5899400000000001 -7.240140000000001 -2.7867750000000004 -0.9855000000000002 3.9222900000000007 -2.1626250000000007 6.863460000000001 -2.4090000000000007 9.986400000000001 -0.4380000000000001 5.433390000000001 -0.34273500000000007 17.082000000000004 1.4979600000000004 21.681000000000004 -0.4161000000000001 1.6852050000000003 -5.118030000000001 21.782835000000006 11.692410000000002 21.80364h29.684355000000007c2.1264900000000004 -8.558520000000001 1.51767 -17.546280000000003 -0.4993200000000001 -26.092755000000004Z" stroke-width="1"></path><path id="Vector_2" fill="#d6f2ff00" d="M136.02637500000003 71.45860500000002H88.21648500000002V46.325070000000004h47.80989000000001v25.133535000000006Z" stroke-width="1"></path><path id="Vector_3" fill="#d6f2ff00" d="M126.20641500000002 94.44692550000002H97.89300000000003c-0.7669380000000001 0 -1.5025590000000004 0.3047385 -2.0449125 0.8470920000000001 -0.5423535000000002 0.5422440000000001 -0.8469825000000001 1.2778650000000003 -0.8469825000000001 2.0448030000000004 0 0.7670475000000001 0.30462900000000004 1.5025590000000004 0.8469825000000001 2.0449125 0.5423535000000002 0.5423535000000002 1.2779745000000002 0.8469825000000001 2.0449125 0.8469825000000001h28.31560500000001c0.7665000000000001 0 1.5023400000000005 -0.30462900000000004 2.0443650000000004 -0.8469825000000001 0.54312 -0.5423535000000002 0.8475300000000002 -1.2778650000000003 0.8475300000000002 -2.0449125 0 -0.7669380000000001 -0.30441000000000007 -1.5025590000000004 -0.8475300000000002 -2.0448030000000004 -0.5420250000000001 -0.5423535000000002 -1.2778650000000003 -0.8470920000000001 -2.0443650000000004 -0.8470920000000001h-0.0021900000000000005Z" stroke-width="1"></path><path id="Vector_4" fill="#d6f2ff00" d="M49.831260000000015 110.55339000000002h-17.060100000000002c-0.7669380000000001 0 -1.5025590000000004 -0.30441000000000007 -2.0449125 -0.8475300000000002 -0.5423535000000002 -0.5419155000000001 -0.8469825000000001 -1.2774270000000003 -0.8469825000000001 -2.0444745 0 -0.7669380000000001 0.30462900000000004 -1.5025590000000004 0.8469825000000001 -2.0448030000000004 0.5423535000000002 -0.5423535000000002 1.2779745000000002 -0.8470920000000001 2.0449125 -0.8470920000000001h17.060100000000002c0.7669380000000001 0 1.5025590000000004 0.3047385 2.0449125 0.8470920000000001 0.5423535000000002 0.5422440000000001 0.8469825000000001 1.2778650000000003 0.8469825000000001 2.0448030000000004 0 0.7670475000000001 -0.30462900000000004 1.5025590000000004 -0.8469825000000001 2.0444745 -0.5423535000000002 0.54312 -1.2779745000000002 0.8475300000000002 -2.0449125 0.8475300000000002Z" stroke-width="1"></path><path id="Vector_5" fill="#d6f2ff00" d="M180.424245 92.49246000000002h-16.581585000000004c-0.38434500000000005 -0.007446000000000001 -0.7665000000000001 0.06175800000000001 -1.1234700000000002 0.20377950000000003 -0.3580650000000001 0.141912 -0.6832800000000001 0.3536850000000001 -0.9581250000000001 0.6229455 -0.27375000000000005 0.26926050000000007 -0.4916550000000001 0.5904240000000002 -0.6405750000000001 0.9449850000000002 -0.14892000000000002 0.354561 -0.22557000000000002 0.7351830000000001 -0.22557000000000002 1.1196375 0 0.3845640000000001 0.07665000000000002 0.7651860000000001 0.22557000000000002 1.119747 0.14892000000000002 0.35445150000000003 0.36682500000000007 0.6757245000000001 0.6405750000000001 0.9449850000000002 0.27484500000000006 0.26915100000000003 0.6000600000000001 0.4810335000000001 0.9581250000000001 0.6229455 0.35697000000000007 0.141912 0.7391250000000001 0.21122550000000004 1.1234700000000002 0.20367000000000005h16.581585000000004c0.38434500000000005 0.0075555000000000015 0.7665000000000001 -0.06175800000000001 1.1234700000000002 -0.20367000000000005 0.3580650000000001 -0.141912 0.6832800000000001 -0.35379450000000007 0.9581250000000001 -0.6229455 0.27375000000000005 -0.26926050000000007 0.4916550000000001 -0.5905335000000002 0.6405750000000001 -0.9449850000000002 0.14892000000000002 -0.354561 0.22557000000000002 -0.7351830000000001 0.22557000000000002 -1.119747 0 -0.3844545000000001 -0.07665000000000002 -0.7650765000000002 -0.22557000000000002 -1.1196375 -0.14892000000000002 -0.354561 -0.36682500000000007 -0.6757245000000001 -0.6405750000000001 -0.9449850000000002 -0.27484500000000006 -0.26926050000000007 -0.6000600000000001 -0.4810335000000001 -0.9581250000000001 -0.6229455 -0.35697000000000007 -0.14202150000000002 -0.7391250000000001 -0.21122550000000004 -1.1234700000000002 -0.20377950000000003Z" stroke-width="1"></path></g><g id="color 1"><path id="Vector_6" fill="#007bff" d="m40.822695 142.98510000000005 2.9335050000000003 2.3301600000000007c0 -0.4993200000000001 0.04161000000000001 -0.9986400000000002 0.06241500000000001 -1.5384750000000003 -1.0338990000000001 -0.10512000000000002 -2.0449125 -0.3723000000000001 -2.995920000000001 -0.7916850000000001Z" stroke-width="1"></path><path id="Vector_7" fill="#007bff" d="M27.361860000000004 135.12300000000002c-0.3744900000000001 1.2888150000000003 -2.1900000000000004 8.675685000000001 3.911340000000001 12.544320000000003 -0.5825400000000002 0.24966000000000005 -3.4744350000000006 2.2896450000000006 -3.7230000000000008 2.4768900000000005 -2.6131080000000004 1.9315800000000003 -4.891693500000001 4.278165 -6.745200000000001 6.9466800000000015 -3.8073150000000004 5.721375000000001 -4.2650250000000005 14.293035000000003 1.5811800000000003 18.850425000000005 3.8697300000000006 2.9948250000000005 10.90182 3.2455800000000004 14.584305000000004 -0.32850000000000007 -0.8662545000000001 -6.055350000000002 -1.075509 -12.186255000000001 -0.6241500000000001 -18.286500000000004 0.24966000000000005 -3.2050650000000007 1.4147400000000003 -5.950230000000001 2.12211 -8.905635 1.6019850000000004 -6.621465000000001 0.5420250000000001 -8.350470000000001 -0.9362250000000002 -12.045000000000002 -2.8086750000000005 -0.6854700000000001 -1.8100350000000003 -4.014270000000001 0.12483000000000002 -2.8918950000000003 0.27134100000000005 0.17739000000000005 0.575532 0.29784000000000005 0.894615 0.3547800000000001 1.061055 -5.409300000000002 3.1207500000000006 -5.8035000000000005 4.993200000000001 -4.058070000000001 -2.6761800000000004 -3.513855000000001 -13.596615000000002 -3.4941450000000005 -16.183005 5.342505Z" stroke-width="1"></path><path id="Vector_8" fill="#007bff" d="M77.98042500000001 172.23693000000003c-14.521890000000003 9.242895000000003 -15.689160000000003 9.956835000000002 -16.623195000000003 10.423305000000003l17.309760000000004 -7.968315000000001 -0.6865650000000001 -2.4549900000000004Z" stroke-width="1"></path><path id="Vector_9" fill="#007bff" d="M139.45920000000004 199.01296500000004c-3.6824850000000007 -3.1207500000000006 -9.088500000000002 -6.907260000000001 -13.918545000000003 -8.322000000000001 -4.377810000000001 1.2592500000000002 -9.020610000000001 1.2592500000000002 -13.398420000000003 0 -0.8562900000000002 2.439660000000001 -1.4016000000000002 4.9789650000000005 -1.6227900000000002 7.555500000000002 -0.026280000000000005 0.3076950000000001 0.013140000000000002 0.6164850000000001 0.11278500000000001 0.9088500000000002 0.10074000000000001 0.2912700000000001 0.26061 0.5595450000000001 0.4697550000000001 0.7862100000000001 0.20914500000000005 0.22666500000000003 0.46318500000000007 0.4073400000000001 0.7467900000000002 0.5299800000000001 0.28251000000000004 0.12264000000000003 0.5880150000000002 0.18505500000000005 0.8968050000000001 0.18396000000000004 8.384415000000002 0.020805000000000004 15.666165000000003 0.10950000000000003 26.068665000000003 0.12592500000000004 0.20586000000000004 0.0010950000000000003 0.4073400000000001 -0.06132000000000001 0.5770650000000002 -0.17848500000000003 0.16863000000000003 -0.11826000000000002 0.29784000000000005 -0.28470000000000006 0.3679200000000001 -0.4785150000000001s0.079935 -0.40405500000000005 0.026280000000000005 -0.6033450000000001c-0.05365500000000001 -0.19929000000000002 -0.16753500000000002 -0.37668 -0.32631000000000004 -0.5080800000000001Z" stroke-width="1"></path><path id="Vector_10" fill="#007bff" d="M164.57083500000005 173.90133000000003c-0.015330000000000003 -0.19819500000000004 -0.09198000000000002 -0.38763000000000003 -0.22009500000000004 -0.5398350000000001 -0.12811500000000003 -0.15330000000000005 -0.3000300000000001 -0.26280000000000003 -0.4927500000000001 -0.31317 -0.19272000000000003 -0.050370000000000005 -0.3963900000000001 -0.039420000000000004 -0.5825400000000002 0.031755000000000005 -0.18615000000000004 0.07117500000000002 -0.34602000000000005 0.19819500000000004 -0.45661500000000005 0.3635400000000001 -3.1207500000000006 3.6835800000000005 -6.907260000000001 12.421680000000002 -8.322000000000001 17.247345000000003 1.2045000000000003 4.619805000000001 1.2899100000000001 5.762985000000001 0.020805000000000004 10.091520000000001h9.964500000000001c0.8628600000000002 0.08212500000000002 1.6293600000000004 -18.287595000000003 0.08869500000000002 -26.881155000000003Z" stroke-width="1"></path><path id="Vector_11" fill="#007bff" d="M55.469415000000005 51.00619500000001c0 0.5554935000000001 -0.16468800000000003 1.0985040000000004 -0.4733685000000001 1.5603750000000003 -0.30857100000000004 0.4618710000000001 -0.7472280000000001 0.8219070000000002 -1.2604545000000003 1.0344465000000003 -0.5132265000000001 0.21264900000000006 -1.0779180000000002 0.26827500000000004 -1.6227900000000002 0.15987 -0.5448720000000001 -0.10840500000000003 -1.0452870000000003 -0.37591350000000007 -1.4380635000000002 -0.7686900000000001 -0.3927765000000001 -0.3927765000000001 -0.6602850000000001 -0.8931915000000001 -0.7686900000000001 -1.4380635000000002 -0.10840500000000003 -0.5448720000000001 -0.052779000000000006 -1.1095635000000004 0.15976050000000003 -1.6227900000000002 0.21264900000000006 -0.5132265000000001 0.5726850000000001 -0.9518835000000001 1.0345560000000003 -1.2604545000000003 0.4618710000000001 -0.3086805 1.0048815000000002 -0.4733685000000001 1.5603750000000003 -0.4733685000000001 0.7448190000000001 0.0003285 1.4590875000000003 0.29630700000000004 1.9856730000000002 0.8230020000000002 0.526695 0.5265855 0.8226735000000001 1.2408540000000001 0.8230020000000002 1.9856730000000002Z" stroke-width="1"></path><path id="Vector_12" fill="#007bff" d="m88.71580500000002 184.32573000000005 -7.6770450000000015 5.180445000000001c1.5761430000000003 -1.6961550000000003 3.0365445000000006 -3.4963350000000006 4.371240000000001 -5.388495000000002 -0.022995000000000005 0.019710000000000002 1.24611 0.06132000000000001 3.3058050000000008 0.20805000000000004Z" stroke-width="1"></path></g><g id="outlines"><path id="Vector_13" stroke="#007bff" stroke-linecap="round" stroke-linejoin="round" d="M46.41924000000001 142.67302500000002c3.0862575000000003 2.2151850000000004 6.791080500000001 3.402165000000001 10.589745 3.3945000000000007h12.921000000000003" stroke-width="1"></path><path id="Vector_14" stroke="#007bff" stroke-linecap="round" stroke-linejoin="round" d="M79.87368000000002 146.06424h-4.140195000000001" stroke-width="1"></path><path id="Vector_15" stroke="#007bff" stroke-linecap="round" stroke-linejoin="round" d="M80.64346500000002 146.06533500000003h86.59041000000002c2.3881950000000005 0.0010950000000000003 4.753395000000001 -0.4686600000000001 6.9598200000000014 -1.3818900000000003 2.2064250000000007 -0.9143250000000002 4.2113700000000005 -2.2535100000000003 5.899860000000001 -3.9420000000000006 1.6884900000000003 -1.6884900000000003 3.027675000000001 -3.693435000000001 3.9420000000000006 -5.899860000000001 0.9132300000000001 -2.2064250000000007 1.3829850000000001 -4.571625000000001 1.3818900000000003 -6.9598200000000014v-5.160735000000001" stroke-width="1"></path><path id="Vector_16" stroke="#007bff" stroke-linecap="round" stroke-linejoin="round" d="M185.41744500000001 87.76873950000001v-30.604155000000006c0.0010950000000000003 -2.3880855000000003 -0.4686600000000001 -4.752847500000001 -1.3829850000000001 -6.959272500000002 -0.9132300000000001 -2.2063155 -2.2524150000000005 -4.211151000000001 -3.9409050000000008 -5.899641000000002 -1.6895850000000001 -1.6885995000000003 -3.693435000000001 -3.0278940000000008 -5.899860000000001 -3.9412335000000005 -2.2064250000000007 -0.9134490000000002 -4.571625000000001 -1.3832040000000003 -6.9598200000000014 -1.3823280000000002H57.00898500000001c-2.3880855000000003 -0.0008760000000000002 -4.752847500000001 0.4688790000000001 -6.959272500000002 1.3823280000000002 -2.2065345 0.9133395000000001 -4.2113700000000005 2.2526340000000005 -5.899969500000001 3.9412335000000005 -1.6887090000000002 1.6884900000000003 -3.0281130000000007 3.6933255000000007 -3.9416715000000004 5.899641000000002 -0.9135585000000002 2.2064250000000007 -1.3834230000000003 4.571187000000001 -1.3826565000000002 6.959272500000002v30.604155000000006" stroke-width="1"></path><path id="Vector_17" stroke="#007bff" stroke-linecap="round" stroke-linejoin="round" d="M38.82541500000001 127.69342500000002v-4.9723950000000015" stroke-width="1"></path><path id="Vector_18" stroke="#007bff" stroke-linecap="round" stroke-linejoin="round" d="M37.82677500000001 178.97884500000004c-0.39409050000000007 -1.1092350000000002 -0.6872220000000002 -2.2513200000000007 -0.8760000000000002 -3.413115000000001" stroke-width="1"></path><path id="Vector_19" stroke="#007bff" stroke-linecap="round" stroke-linejoin="round" d="M40.077000000000005 149.85075000000003c1.5588420000000003 0.4807050000000001 3.0814395000000006 1.072005 4.556295 1.7684250000000004 1.6272795000000002 0.8311050000000002 2.9638365000000007 2.1374400000000002 3.8325000000000005 3.744900000000001 2.7148335 5.020575000000001 5.6797650000000015 9.902085000000001 8.883735000000001 14.625915000000003l15.250065000000003 -10.610550000000002c2.8918950000000003 0.500415 5.043570000000001 2.83605 6.262305000000001 5.389590000000001 0.9332685000000001 1.8494550000000003 1.4516415000000005 3.879585000000001 1.5187650000000004 5.949135000000001 -1.135515 0.7325550000000002 -15.508485000000004 9.863760000000001 -17.621835000000004 11.152575000000002 -7.142685000000001 4.355910000000001 -12.708570000000002 2.85795 -16.768830000000005 -4.473075000000001 -0.6449550000000001 -1.1650800000000003 -6.720015000000001 -10.964235000000002 -6.720015000000001 -10.964235000000002" stroke-width="1"></path><path id="Vector_20" stroke="#007bff" stroke-linecap="round" stroke-linejoin="round" d="m43.75620000000001 145.31526000000002 -2.9335050000000003 -2.3301600000000007c0.9580155000000001 0.41938500000000006 1.9759275000000003 0.6865650000000001 3.0167250000000005 0.7905900000000001" stroke-width="1"></path><path id="Vector_21" stroke="#007bff" stroke-linecap="round" stroke-linejoin="round" d="M55.13653500000001 166.64148000000003c-0.6740820000000002 -2.8546650000000007 -1.5928965000000004 -5.6458200000000005 -2.7462600000000004 -8.342805000000002 -2.79225 -6.032355000000002 -6.834990000000001 -8.230020000000001 -7.864290000000002 -9.549495000000002 -0.6663075000000002 -1.0128750000000002 -0.9389625000000003 -2.2338000000000005 -0.7665000000000001 -3.4339200000000005l0.08322000000000002 -1.53957c0.4904505000000001 0.04161000000000001 0.9837480000000002 -0.037230000000000006 1.4369685000000003 -0.22885500000000003 0.4532205000000001 -0.19272000000000003 0.8526765000000001 -0.4927500000000001 1.1636565 -0.8738100000000002 2.2184700000000004 -2.8185300000000004 -0.10402500000000002 -10.27767 -2.8918950000000003 -12.899100000000002" stroke-width="1"></path><path id="Vector_22" stroke="#007bff" stroke-linecap="round" stroke-linejoin="round" d="M43.548150000000014 129.77392500000002c-1.8724500000000004 -1.7520000000000004 -3.932145000000001 -1.3512300000000002 -4.993200000000001 4.058070000000001 -0.31919250000000005 -0.056940000000000004 -0.6234930000000001 -0.17739000000000005 -0.894615 -0.3547800000000001 -1.9359600000000003 -1.1212800000000003 -2.9335050000000003 2.20533 -0.12483000000000002 2.8918950000000003 0.6147330000000001 1.2034050000000003 1.0827360000000001 2.4757950000000006 1.3939350000000001 3.790890000000001 0.5658960000000002 2.7462600000000004 0.4082160000000001 5.592165000000001 -0.45771000000000006 8.258490000000002 -0.7106550000000001 2.9565000000000006 -1.8615000000000004 5.701665000000001 -2.12211 8.905635 -0.4475265000000001 6.100245000000001 -0.23827200000000004 12.231150000000001 0.6241500000000001 18.286500000000004 -3.6824850000000007 3.57846 -10.718955000000001 3.3353700000000006 -14.584305000000004 0.32850000000000007 -5.854965000000002 -4.545345 -5.396160000000001 -13.131240000000004 -1.5844650000000005 -18.848235000000006 1.8445275000000005 -2.6750850000000006 4.122784500000001 -5.022765000000001 6.740820000000001 -6.947775000000001 0.24856500000000006 -0.18943500000000002 3.1415550000000008 -2.22723 3.7230000000000008 -2.4768900000000005 -6.095865000000002 -3.8697300000000006 -4.286925000000001 -11.255505000000001 -3.911340000000001 -12.544320000000003 1.7410500000000004 -5.973225000000001 7.239045000000001 -7.869765000000002 11.463555000000001 -7.470090000000002 1.7938290000000003 0.056940000000000004 3.492721500000001 0.8190600000000001 4.727115000000001 2.12211v0Z" stroke-width="1"></path><path id="Vector_23" stroke="#007bff" stroke-linecap="round" stroke-linejoin="round" d="M80.55367500000001 189.96607500000005c2.638950000000001 -2.3411100000000005 7.854435000000001 -10.052100000000001 9.764115000000002 -13.030500000000004 3.880680000000001 5.225340000000001 12.253050000000002 8.676780000000003 21.782835000000006 13.751010000000003" stroke-width="1"></path><path id="Vector_24" stroke="#007bff" stroke-linecap="round" stroke-linejoin="round" d="M125.54065500000003 190.71177000000003c-7.201815000000002 -3.1886400000000004 -23.583015000000003 -22.283250000000006 -27.649845000000006 -26.837355000000006 -1.8802245000000004 -2.1013050000000004 -4.432122000000001 -3.4842900000000006 -7.219335000000001 -3.9124350000000008" stroke-width="1"></path><path id="Vector_25" stroke="#007bff" stroke-linecap="round" stroke-linejoin="round" d="m78.64837500000002 174.70068000000003 -17.291145000000004 7.959555000000002" stroke-width="1"></path><path id="Vector_26" stroke="#007bff" stroke-linecap="round" stroke-linejoin="round" d="M78.00123 172.23693000000003c2.6280000000000006 9.394005000000002 3.5609400000000004 19.081470000000003 1.2045000000000003 28.545555000000004H49.51918500000001c-17.559420000000003 0 -11.671605000000003 -21.908760000000004 -11.671605000000003 -21.908760000000004 2.9597850000000006 0.24528000000000005 5.936871000000001 0.18177000000000004 8.883735000000001 -0.18724500000000005" stroke-width="1"></path><path id="Vector_27" stroke="#007bff" stroke-linecap="round" stroke-linejoin="round" d="M125.54065500000003 190.69096500000003c4.826760000000001 1.4147400000000003 10.218540000000003 5.222055000000001 13.918545000000003 8.322000000000001 0.15877500000000003 0.13140000000000002 0.27265500000000004 0.30879 0.32740500000000006 0.5080800000000001 0.05365500000000001 0.19929000000000002 0.04489500000000001 0.4106250000000001 -0.026280000000000005 0.6044400000000002 -0.07008000000000002 0.19381500000000002 -0.19929000000000002 0.3602550000000001 -0.3690150000000001 0.4785150000000001 -0.16863000000000003 0.11716500000000002 -0.3712050000000001 0.17958000000000005 -0.5770650000000002 0.17848500000000003 -10.402500000000002 -0.010950000000000001 -17.684250000000002 -0.10950000000000003 -26.068665000000003 -0.12592500000000004 -0.3076950000000001 0.0010950000000000003 -0.6132000000000002 -0.06241500000000001 -0.8957100000000001 -0.18615000000000004 -0.28251000000000004 -0.12264000000000003 -0.5365500000000001 -0.30331500000000006 -0.7456950000000002 -0.5299800000000001 -0.20914500000000005 -0.22666500000000003 -0.3690150000000001 -0.4938450000000001 -0.4697550000000001 -0.7851150000000001 -0.10074000000000001 -0.2912700000000001 -0.14016000000000003 -0.6000600000000001 -0.11497500000000002 -0.9077550000000001 0.22885500000000003 -2.5754400000000004 0.7741650000000001 -5.112555 1.6227900000000002 -7.555500000000002 4.377810000000001 1.2592500000000002 9.020610000000001 1.2581550000000004 13.398420000000003 -0.0010950000000000003v0Z" stroke-width="1"></path><path id="Vector_28" stroke="#007bff" stroke-linecap="round" stroke-linejoin="round" d="M154.5045 190.69096500000003c1.4147400000000003 -4.826760000000001 5.222055000000001 -13.547340000000002 8.322000000000001 -17.247345000000003 0.11059500000000003 -0.16534500000000002 0.27046500000000007 -0.2912700000000001 0.45661500000000005 -0.36135000000000006 0.18615000000000004 -0.07117500000000002 0.38982000000000006 -0.08212500000000002 0.5814450000000001 -0.031755000000000005 0.19272000000000003 0.050370000000000005 0.3646350000000001 0.15987 0.4927500000000001 0.31207500000000005 0.12811500000000003 0.15220500000000003 0.20476500000000003 0.34054500000000004 0.22119000000000005 0.5387400000000001 1.5505200000000001 8.591370000000001 0.7665000000000001 26.964375000000004 -0.08322000000000002 26.881155000000003h-9.964500000000001c1.2603450000000003 -4.327440000000001 1.1782200000000003 -5.472810000000001 -0.026280000000000005 -10.091520000000001Z" stroke-width="1"></path><path id="Vector_29" stroke="#007bff" stroke-linecap="round" stroke-linejoin="round" d="M154.5045 190.69096500000003c-12.378975000000002 0.7281750000000001 -24.404265000000002 -0.9778350000000002 -32.726265000000005 -2.4090000000000007" stroke-width="1"></path><path id="Vector_30" stroke="#007bff" stroke-linecap="round" stroke-linejoin="round" d="M85.47022500000003 158.02711500000004c2.9751150000000006 -0.7478850000000002 5.438865000000001 0.5398350000000001 5.263665000000001 1.6852050000000003 -0.037339500000000005 0.23214000000000004 -0.12537750000000003 0.45333000000000007 -0.2578725 0.6471450000000001 -0.13249500000000003 0.19491000000000003 -0.30616200000000005 0.35697000000000007 -0.5086275000000001 0.4763250000000001" stroke-width="1"></path><path id="Vector_31" stroke="#007bff" stroke-linecap="round" stroke-linejoin="round" d="M85.15815 156.21708c3.1207500000000006 -0.7905900000000001 6.2831100000000015 0.7281750000000001 4.951590000000001 2.3925750000000003" stroke-width="1"></path><path id="Vector_32" stroke="#007bff" stroke-linecap="round" stroke-linejoin="round" d="M80.10253500000002 168.38800500000002c1.9568745000000003 -2.6499000000000006 4.635901500000001 -4.678935 7.716465000000001 -5.846205000000001" stroke-width="1"></path><path id="Vector_33" stroke="#007bff" stroke-linecap="round" stroke-linejoin="round" d="M85.38700500000002 160.17003000000003c2.8918950000000003 -0.6241500000000001 4.826760000000001 0.45771000000000006 4.722735 1.6019850000000004 -0.12483000000000002 1.3731300000000002 -2.8470000000000004 3.517140000000001 -5.201250000000001 2.226135" stroke-width="1"></path><path id="Vector_34" stroke="#007bff" stroke-linecap="round" stroke-linejoin="round" d="M74.50599000000001 159.96198000000004c1.3315200000000003 -1.3731300000000002 8.55633 -7.514985000000002 9.050175000000003 -7.032090000000001 0.5475000000000001 0.5354550000000001 -0.6865650000000001 2.2688400000000004 -0.6865650000000001 2.2688400000000004" stroke-width="1"></path><path id="Vector_35" stroke="#007bff" stroke-linecap="round" stroke-linejoin="round" d="M74.50599000000001 159.96198000000004c2.301909 -1.8866850000000004 4.885342500000001 -3.402165000000001 7.656240000000001 -4.4895000000000005 3.4191375000000006 -1.3359000000000003 6.766333500000001 -2.8491900000000006 10.028010000000002 -4.534395000000001 0.9855000000000002 -0.5803500000000001 -0.3744900000000001 2.4757950000000006 -5.534130000000001 5.05452" stroke-width="1"></path><path id="Vector_36" stroke="#007bff" stroke-linecap="round" stroke-linejoin="round" d="M136.02637500000003 61.075924500000006h49.39107000000001" stroke-width="1"></path><path id="Vector_37" stroke="#007bff" stroke-linecap="round" stroke-linejoin="round" d="M38.82541500000001 61.075924500000006h49.39107000000001" stroke-width="1"></path><path id="Vector_38" stroke="#007bff" stroke-linecap="round" stroke-linejoin="round" d="M55.469415000000005 51.00619500000001c0 0.5554935000000001 -0.16468800000000003 1.0985040000000004 -0.4733685000000001 1.5603750000000003 -0.30857100000000004 0.4618710000000001 -0.7472280000000001 0.8219070000000002 -1.2604545000000003 1.0344465000000003 -0.5132265000000001 0.21264900000000006 -1.0779180000000002 0.26827500000000004 -1.6227900000000002 0.15987 -0.5448720000000001 -0.10840500000000003 -1.0452870000000003 -0.37591350000000007 -1.4380635000000002 -0.7686900000000001 -0.3927765000000001 -0.3927765000000001 -0.6602850000000001 -0.8931915000000001 -0.7686900000000001 -1.4380635000000002 -0.10840500000000003 -0.5448720000000001 -0.052779000000000006 -1.1095635000000004 0.15976050000000003 -1.6227900000000002 0.21264900000000006 -0.5132265000000001 0.5726850000000001 -0.9518835000000001 1.0345560000000003 -1.2604545000000003 0.4618710000000001 -0.3086805 1.0048815000000002 -0.4733685000000001 1.5603750000000003 -0.4733685000000001 0.7448190000000001 0.0003285 1.4590875000000003 0.29630700000000004 1.9856730000000002 0.8230020000000002 0.526695 0.5265855 0.8226735000000001 1.2408540000000001 0.8230020000000002 1.9856730000000002Z" stroke-width="1"></path><path id="Vector_39" stroke="#007bff" stroke-linecap="round" stroke-linejoin="round" d="M63.978660000000005 51.00619500000001c0 0.5554935000000001 -0.16468800000000003 1.0985040000000004 -0.4733685000000001 1.5603750000000003 -0.30857100000000004 0.4618710000000001 -0.7472280000000001 0.8219070000000002 -1.2604545000000003 1.0344465000000003 -0.5132265000000001 0.21264900000000006 -1.0779180000000002 0.26827500000000004 -1.6227900000000002 0.15987 -0.5448720000000001 -0.10840500000000003 -1.0452870000000003 -0.37591350000000007 -1.4380635000000002 -0.7686900000000001 -0.3927765000000001 -0.3927765000000001 -0.6602850000000001 -0.8931915000000001 -0.7686900000000001 -1.4380635000000002 -0.10840500000000003 -0.5448720000000001 -0.052779000000000006 -1.1095635000000004 0.15976050000000003 -1.6227900000000002 0.21264900000000006 -0.5132265000000001 0.5726850000000001 -0.9518835000000001 1.0345560000000003 -1.2604545000000003 0.4618710000000001 -0.3086805 1.0048815000000002 -0.4733685000000001 1.5603750000000003 -0.4733685000000001 0.7448190000000001 0.0003285 1.4590875000000003 0.29630700000000004 1.9856730000000002 0.8230020000000002 0.526695 0.5265855 0.8226735000000001 1.2408540000000001 0.8230020000000002 1.9856730000000002Z" stroke-width="1"></path><path id="Vector_40" stroke="#007bff" stroke-linecap="round" stroke-linejoin="round" d="M72.529515 51.00619500000001c0 0.5554935000000001 -0.16468800000000003 1.0985040000000004 -0.4733685000000001 1.5603750000000003 -0.30857100000000004 0.4618710000000001 -0.7472280000000001 0.8219070000000002 -1.2604545000000003 1.0344465000000003 -0.5132265000000001 0.21264900000000006 -1.0779180000000002 0.26827500000000004 -1.6227900000000002 0.15987 -0.5448720000000001 -0.10840500000000003 -1.0452870000000003 -0.37591350000000007 -1.4380635000000002 -0.7686900000000001 -0.39288600000000007 -0.3927765000000001 -0.6602850000000001 -0.8931915000000001 -0.7686900000000001 -1.4380635000000002 -0.10840500000000003 -0.5448720000000001 -0.052779000000000006 -1.1095635000000004 0.15976050000000003 -1.6227900000000002 0.21264900000000006 -0.5132265000000001 0.5725755000000001 -0.9518835000000001 1.0345560000000003 -1.2604545000000003 0.4618710000000001 -0.3086805 1.0048815000000002 -0.4733685000000001 1.5603750000000003 -0.4733685000000001 0.7448190000000001 0.0003285 1.4590875000000003 0.29630700000000004 1.9856730000000002 0.8230020000000002 0.526695 0.5265855 0.8226735000000001 1.2408540000000001 0.8230020000000002 1.9856730000000002Z" stroke-width="1"></path><path id="Vector_41" stroke="#007bff" stroke-linecap="round" stroke-linejoin="round" d="m53.70099000000001 161.7315 10.360890000000001 -13.107150000000003c4.440663000000001 1.0632450000000002 8.344338000000002 3.7021950000000006 10.985040000000001 7.427385000000002l-2.4549900000000004 3.3288000000000006" stroke-width="1"></path><path id="Vector_42" stroke="#007bff" stroke-linecap="round" stroke-linejoin="round" d="M75.08853 148.83130500000004c1.3523250000000004 -5.783790000000001 2.4933150000000004 -10.402500000000002 2.7462600000000004 -11.817240000000002 0.6975150000000001 -3.8916300000000006 -0.32850000000000007 -3.804030000000001 -1.8724500000000004 -0.5201250000000001 -2.1393015 4.917645 -5.294325000000001 9.328305000000002 -9.258225000000001 12.940710000000001" stroke-width="1"></path><path id="Vector_43" stroke="#007bff" stroke-linecap="round" stroke-linejoin="round" d="M77.58513 138.18024000000003c1.0648875000000002 -1.0095900000000002 2.2617225000000007 -1.8702600000000003 3.557655000000001 -2.5590150000000005 0.3755850000000001 -0.16534500000000002 1.0216350000000003 0.06460500000000001 -0.6033450000000001 1.9710000000000003 -1.0796700000000001 1.2702000000000002 -3.058335000000001 3.8325000000000005 -3.9737550000000006 5.076420000000001" stroke-width="1"></path><path id="Vector_44" stroke="#007bff" stroke-linecap="round" stroke-linejoin="round" d="M75.37980000000002 147.49650000000003c1.2353790000000002 -0.32521500000000003 2.4510480000000006 -0.7216050000000002 3.6408750000000007 -1.1869800000000004 1.4749650000000003 -0.4839900000000001 2.8667100000000003 -1.0030200000000002 -0.20805000000000004 1.9972800000000004 -1.8803340000000004 1.8702600000000003 -3.5994840000000003 3.8949150000000006 -5.138835 6.054255000000001" stroke-width="1"></path><path id="Vector_45" stroke="#007bff" stroke-linecap="round" stroke-linejoin="round" d="M125.15850000000002 112.54848000000003c-0.050370000000000005 -0.5332650000000001 -0.28032000000000007 -1.0347750000000002 -0.6526200000000001 -1.4202150000000002 -0.3723000000000001 -0.38544000000000006 -0.8650500000000002 -0.634005 -1.396125 -0.7029900000000001l-21.474045000000004 -3.3079950000000005c-1.102665 -0.16644000000000003 -1.9710000000000003 0.4380000000000001 -1.9556700000000005 1.374225l0.20805000000000004 17.268150000000002 -14.001765000000004 9.253845000000002c-0.8322000000000002 0.5201250000000001 -0.3536850000000001 1.78923 0.8113950000000001 2.12211l21.762030000000003 6.132000000000001c0.28601400000000005 0.09745500000000001 0.5906430000000001 0.12811500000000003 0.8902350000000001 0.08760000000000001 0.3000300000000001 -0.039420000000000004 0.5858250000000002 -0.14782500000000004 0.8365800000000002 -0.31645500000000004l14.968650000000002 -11.546775000000002 0.0032850000000000006 -18.943500000000004Z" stroke-width="1"></path><path id="Vector_46" stroke="#007bff" stroke-linecap="round" stroke-linejoin="round" d="m125.15521500000001 131.50074000000004 -25.267125000000004 -5.741085000000002" stroke-width="1"></path><path id="Vector_47" stroke="#007bff" stroke-linecap="round" stroke-linejoin="round" d="M122.23266000000002 128.27596500000004c0.3744900000000001 0.08431500000000001 0.7391250000000001 -0.10402500000000002 0.7391250000000001 -0.4380000000000001v-14.271135000000003c-0.012045000000000002 -0.17301000000000002 -0.08431500000000001 -0.33726000000000006 -0.20367000000000005 -0.46209000000000006 -0.12045000000000002 -0.12592500000000004 -0.28032000000000007 -0.20476500000000003 -0.45333000000000007 -0.22447500000000004l-19.639920000000004 -3.1207500000000006c-0.0730365 -0.021900000000000003 -0.15001500000000004 -0.026280000000000005 -0.22502250000000001 -0.013140000000000002 -0.075117 0.012045000000000002 -0.14629200000000003 0.04161000000000001 -0.20837850000000002 0.08541000000000001s-0.11333250000000002 0.10183500000000002 -0.15001500000000004 0.16863000000000003c-0.03668250000000001 0.06679500000000001 -0.05770650000000001 0.14125500000000002 -0.06153900000000001 0.21681000000000006l0.12483000000000002 12.941805000000004c0.018943500000000002 0.16315500000000002 0.08979000000000002 0.31645500000000004 0.20224650000000005 0.4358100000000001 0.11234700000000002 0.12045000000000002 0.26028150000000005 0.20038500000000004 0.42190350000000004 0.22995000000000004l19.453770000000002 4.451175000000001Z" stroke-width="1"></path><path id="Vector_48" stroke="#007bff" stroke-linecap="round" stroke-linejoin="round" d="M71.01075 122.72103000000001H23.180055000000003V87.76873950000001H71.01075v34.952290500000004Z" stroke-width="1"></path><path id="Vector_49" stroke="#007bff" stroke-linecap="round" stroke-linejoin="round" d="M99.84648000000001 122.72103000000001H88.21648500000002V87.76873950000001h47.80989000000001v34.952290500000004h-10.839405000000001" stroke-width="1"></path><path id="Vector_50" stroke="#007bff" stroke-linecap="round" stroke-linejoin="round" d="M201.04200000000003 122.72103000000001h-47.80989000000001V87.76873950000001H201.04200000000003v34.952290500000004Z" stroke-width="1"></path><path id="Vector_51" stroke="#007bff" stroke-linecap="round" stroke-linejoin="round" d="M136.02637500000003 71.45860500000002H88.21648500000002V46.325070000000004h47.80989000000001v25.133535000000006Z" stroke-width="1"></path><path id="Vector_52" stroke="#007bff" stroke-linecap="round" stroke-linejoin="round" d="M112.12143000000003 71.45860500000002v16.310025000000003" stroke-width="1"></path><path id="Vector_53" stroke="#007bff" stroke-linecap="round" stroke-linejoin="round" d="M124.79167500000003 71.45860500000002v8.154465000000002h52.34538000000001v8.155560000000001" stroke-width="1"></path><path id="Vector_54" stroke="#007bff" stroke-linecap="round" stroke-linejoin="round" d="M100.28338500000001 71.45860500000002v8.154465000000002H47.105805000000004v8.155560000000001" stroke-width="1"></path><path id="Vector_55" stroke="#007bff" stroke-linecap="round" stroke-linejoin="round" d="m107.79399000000001 63.59322000000001 -9.882375000000001 -4.929690000000001 9.757545000000002 -4.661415000000001" stroke-width="1"></path><path id="Vector_56" stroke="#007bff" stroke-linecap="round" stroke-linejoin="round" d="m116.57370000000002 63.63483000000001 9.757545000000002 -5.014005000000001 -9.882375000000001 -4.577100000000001" stroke-width="1"></path><path id="Vector_57" stroke="#007bff" stroke-linecap="round" stroke-linejoin="round" d="m115.49184000000001 49.92543000000001 -6.8656500000000005 17.932815" stroke-width="1"></path><path id="Vector_58" stroke="#007bff" stroke-linecap="round" stroke-linejoin="round" d="M61.08676500000001 100.23082500000001c0.3844545000000001 0.0075555000000000015 0.7665000000000001 -0.06175800000000001 1.1237985000000001 -0.20367000000000005 0.3574080000000001 -0.141912 0.6828420000000002 -0.3536850000000001 0.9573585000000001 -0.6229455 0.27451650000000005 -0.26926050000000007 0.4926405000000001 -0.5905335000000002 0.6414510000000001 -0.9449850000000002 0.14892000000000002 -0.354561 0.22557000000000002 -0.7351830000000001 0.22557000000000002 -1.119747 0 -0.3844545000000001 -0.07665000000000002 -0.7650765000000002 -0.22557000000000002 -1.1196375 -0.1488105 -0.35445150000000003 -0.36693450000000005 -0.6757245000000001 -0.6414510000000001 -0.9449850000000002s-0.5999505000000002 -0.4810335000000001 -0.9573585000000001 -0.6229455c-0.3572985 -0.141912 -0.7393440000000001 -0.21122550000000004 -1.1237985000000001 -0.20377950000000003h-28.294800000000006c-0.3844545000000001 -0.007446000000000001 -0.7665000000000001 0.06186750000000001 -1.1237985000000001 0.20377950000000003 -0.3574080000000001 0.141912 -0.6828420000000002 0.3536850000000001 -0.9573585000000001 0.6229455 -0.27451650000000005 0.26926050000000007 -0.4926405000000001 0.5905335000000002 -0.6414510000000001 0.9449850000000002 -0.14892000000000002 0.354561 -0.22557000000000002 0.7351830000000001 -0.22557000000000002 1.1196375 0 0.3845640000000001 0.07665000000000002 0.7651860000000001 0.22557000000000002 1.119747 0.1488105 0.35445150000000003 0.36693450000000005 0.6757245000000001 0.6414510000000001 0.9449850000000002s0.5999505000000002 0.4810335000000001 0.9573585000000001 0.6229455c0.3572985 0.141912 0.7393440000000001 0.21122550000000004 1.1237985000000001 0.20367000000000005h28.294800000000006Z" stroke-width="1"></path><path id="Vector_59" stroke="#007bff" stroke-linecap="round" stroke-linejoin="round" d="M126.20641500000002 94.44714450000002c0.7665000000000001 0 1.5023400000000005 0.30462900000000004 2.0443650000000004 0.8469825000000001 0.54312 0.5423535000000002 0.8475300000000002 1.2778650000000003 0.8475300000000002 2.0449125 0 0.7669380000000001 -0.30441000000000007 1.5024495000000004 -0.8475300000000002 2.0448030000000004 -0.5420250000000001 0.5423535000000002 -1.2778650000000003 0.8470920000000001 -2.0443650000000004 0.8470920000000001H97.89300000000003c-0.7669380000000001 0 -1.5025590000000004 -0.3047385 -2.0449125 -0.8470920000000001 -0.5423535000000002 -0.5423535000000002 -0.8469825000000001 -1.2778650000000003 -0.8469825000000001 -2.0448030000000004 0 -0.7670475000000001 0.30462900000000004 -1.5025590000000004 0.8469825000000001 -2.0449125 0.5423535000000002 -0.5423535000000002 1.2779745000000002 -0.8469825000000001 2.0449125 -0.8469825000000001h28.313415000000003Z" stroke-width="1"></path><path id="Vector_60" stroke="#007bff" stroke-linecap="round" stroke-linejoin="round" d="M49.831260000000015 104.76970950000002c0.7694565000000001 0.0025185000000000003 1.5062820000000001 0.3106515000000001 2.0485260000000003 0.8563995000000002 0.5423535000000002 0.5458575000000001 0.8456685000000002 1.2846540000000002 0.8433690000000001 2.0541105 0.0003285 0.37887000000000004 -0.07446000000000001 0.7542360000000001 -0.21987600000000004 1.1041980000000002s-0.35872200000000004 0.6676215000000001 -0.6276540000000002 0.9345825000000002c-0.2688225 0.26718000000000003 -0.5879055000000002 0.4785150000000001 -0.9387435000000001 0.6219600000000001 -0.3508380000000001 0.14344500000000004 -0.7266420000000001 0.21571500000000005 -1.1056215000000003 0.21243000000000004H32.791965000000005c-0.7669380000000001 0 -1.5025590000000004 -0.30441000000000007 -2.0449125 -0.8464350000000002 -0.5423535000000002 -0.5429010000000001 -0.8469825000000001 -1.2784125000000002 -0.8469825000000001 -2.0453505 0 -0.7670475000000001 0.30462900000000004 -1.5025590000000004 0.8469825000000001 -2.0449125 0.5423535000000002 -0.5423535000000002 1.2779745000000002 -0.8469825000000001 2.0449125 -0.8469825000000001h17.039295000000003Z" stroke-width="1"></path><path id="Vector_61" stroke="#007bff" stroke-linecap="round" stroke-linejoin="round" d="M180.424245 92.49246000000002c0.38434500000000005 -0.007446000000000001 0.7665000000000001 0.06175800000000001 1.1234700000000002 0.20377950000000003 0.3580650000000001 0.141912 0.6832800000000001 0.3536850000000001 0.9581250000000001 0.6229455 0.27375000000000005 0.26926050000000007 0.4916550000000001 0.5904240000000002 0.6405750000000001 0.9449850000000002 0.14892000000000002 0.354561 0.22557000000000002 0.7351830000000001 0.22557000000000002 1.1196375 0 0.3845640000000001 -0.07665000000000002 0.7651860000000001 -0.22557000000000002 1.119747 -0.14892000000000002 0.35445150000000003 -0.36682500000000007 0.6757245000000001 -0.6405750000000001 0.9449850000000002 -0.27484500000000006 0.26915100000000003 -0.6000600000000001 0.4810335000000001 -0.9581250000000001 0.6229455 -0.35697000000000007 0.141912 -0.7391250000000001 0.21122550000000004 -1.1234700000000002 0.20367000000000005h-16.581585000000004c-0.38434500000000005 0.0075555000000000015 -0.7665000000000001 -0.06175800000000001 -1.1234700000000002 -0.20367000000000005 -0.3580650000000001 -0.141912 -0.6832800000000001 -0.35379450000000007 -0.9581250000000001 -0.6229455 -0.27375000000000005 -0.26926050000000007 -0.4916550000000001 -0.5905335000000002 -0.6405750000000001 -0.9449850000000002 -0.14892000000000002 -0.354561 -0.22557000000000002 -0.7351830000000001 -0.22557000000000002 -1.119747 0 -0.3844545000000001 0.07665000000000002 -0.7650765000000002 0.22557000000000002 -1.1196375 0.14892000000000002 -0.354561 0.36682500000000007 -0.6757245000000001 0.6405750000000001 -0.9449850000000002 0.27484500000000006 -0.26926050000000007 0.6000600000000001 -0.4810335000000001 0.9581250000000001 -0.6229455 0.35697000000000007 -0.14202150000000002 0.7391250000000001 -0.21122550000000004 1.1234700000000002 -0.20377950000000003h16.581585000000004Z" stroke-width="1"></path><path id="Vector_62" stroke="#007bff" stroke-linecap="round" stroke-linejoin="round" d="M188.24692500000003 102.81064500000002c0.7577400000000001 0.014673000000000004 1.4782500000000003 0.3259815000000001 2.0093250000000005 0.8668020000000001 0.5299800000000001 0.5408205000000001 0.8278200000000001 1.2681195 0.8278200000000001 2.0256405000000006 0 0.7575210000000001 -0.29784000000000005 1.4848200000000005 -0.8278200000000001 2.0256405000000006 -0.5310750000000001 0.5408205000000001 -1.2515850000000002 0.8520195000000002 -2.0093250000000005 0.8668020000000001h-24.404265000000002c-0.7577400000000001 -0.014782500000000002 -1.4782500000000003 -0.3259815000000001 -2.0093250000000005 -0.8668020000000001 -0.5299800000000001 -0.5408205000000001 -0.8278200000000001 -1.2681195 -0.8278200000000001 -2.0256405000000006 0 -0.7575210000000001 0.29784000000000005 -1.4848200000000005 0.8278200000000001 -2.0256405000000006 0.5310750000000001 -0.5408205000000001 1.2515850000000002 -0.8521290000000001 2.0093250000000005 -0.8668020000000001h24.404265000000002Z" stroke-width="1"></path><path id="Vector_63" stroke="#007bff" stroke-linecap="round" stroke-linejoin="round" d="m98.11966500000001 75.07758000000001 2.20533 -3.6189750000000007 2.0596950000000005 3.7230000000000008" stroke-width="1"></path><path id="Vector_64" stroke="#007bff" stroke-linecap="round" stroke-linejoin="round" d="m109.93690500000002 75.07758000000001 2.20533 -3.6189750000000007 2.0388900000000003 3.7230000000000008" stroke-width="1"></path><path id="Vector_65" stroke="#007bff" stroke-linecap="round" stroke-linejoin="round" d="m122.66956500000002 75.07758000000001 2.20533 -3.6189750000000007 2.0388900000000003 3.7230000000000008" stroke-width="1"></path><path id="Vector_66" stroke="#007bff" stroke-linecap="round" stroke-linejoin="round" d="m197.67159000000004 71.68636500000001 -7.468995000000001 7.406580000000002" stroke-width="1"></path><path id="Vector_67" stroke="#007bff" stroke-linecap="round" stroke-linejoin="round" d="m197.650785 79.11385950000002 -7.427385000000002 -7.447095000000002" stroke-width="1"></path><path id="Vector_68" stroke="#007bff" stroke-linecap="round" stroke-linejoin="round" d="m27.133005000000004 74.12055000000001 3.2871900000000003 4.639515000000001 3.848925000000001 -6.720015000000001" stroke-width="1"></path><path id="Vector_69" stroke="#007bff" stroke-linecap="round" stroke-linejoin="round" d="M45.96153 150.10150500000003c-2.5099590000000003 -0.6570000000000001 -4.9384500000000005 -1.5921300000000003 -7.240140000000001 -2.7889650000000006" stroke-width="1"></path><path id="Vector_70" stroke="#007bff" stroke-linecap="round" stroke-linejoin="round" d="m112.51672500000001 19.611450000000005 -4.306635000000001 1.4147400000000003 2.4966000000000004 2.2469400000000004 -3.2871900000000003 3.6824850000000007 1.7684250000000004 1.5811800000000003 3.2871900000000003 -3.6824850000000007 2.4966000000000004 2.226135 1.8516450000000004 -8.883735000000001 -4.306635000000001 1.4147400000000003Z" stroke-width="1"></path><path id="Vector_71" stroke="#007bff" stroke-linecap="round" stroke-linejoin="round" d="M133.42575000000002 159.96198000000004c0 0.3000300000000001 -0.08869500000000002 0.5934900000000002 -0.25623000000000007 0.8442450000000001 -0.16644000000000003 0.24966000000000005 -0.40405500000000005 0.4434750000000001 -0.6810900000000001 0.5584500000000001 -0.27813000000000004 0.11497500000000002 -0.5836350000000001 0.14563500000000004 -0.8781900000000002 0.08650500000000001 -0.29455500000000007 -0.05803500000000001 -0.5650200000000001 -0.20257500000000003 -0.7774500000000001 -0.41500500000000007 -0.21243000000000004 -0.21243000000000004 -0.35697000000000007 -0.4828950000000001 -0.41500500000000007 -0.7774500000000001 -0.05913000000000001 -0.29455500000000007 -0.028470000000000002 -0.6000600000000001 0.08650500000000001 -0.8781900000000002 0.11497500000000002 -0.27703500000000003 0.30879 -0.51465 0.5584500000000001 -0.6810900000000001 0.25075500000000006 -0.16753500000000002 0.5442150000000001 -0.25623000000000007 0.8442450000000001 -0.25623000000000007 0.4018650000000001 0.0021900000000000005 0.7873050000000001 0.16315500000000002 1.0709100000000003 0.44785500000000006 0.28470000000000006 0.28360500000000005 0.44566500000000003 0.6690450000000001 0.44785500000000006 1.0709100000000003Z" stroke-width="1"></path><path id="Vector_72" stroke="#007bff" stroke-linecap="round" stroke-linejoin="round" d="M5.475000000000001 200.78139000000002h208.05000000000004" stroke-width="1"></path><path id="Vector_73" stroke="#007bff" stroke-linecap="round" stroke-linejoin="round" d="m88.71580500000002 184.32573000000005 -7.697850000000002 5.201250000000001" stroke-width="1"></path><path id="Vector_74" stroke="#007bff" stroke-linecap="round" stroke-linejoin="round" d="M85.38700500000002 184.13739000000004c5.911905000000001 0.27375000000000005 11.802786000000003 0.8924250000000001 17.64264 1.8527400000000003" stroke-width="1"></path><path id="Vector_75" stroke="#007bff" stroke-linecap="round" stroke-linejoin="round" d="m90.31779000000002 176.93995500000003 -1.3939350000000001 -2.0191800000000004" stroke-width="1"></path></g></g></svg>